<?xml version="1.0" encoding="UTF-8" standalone="no"?>
<!-- Created with Inkscape (http://www.inkscape.org/) -->

<svg
   width="200mm"
   height="200mm"
   viewBox="0 0 200 200"
   version="1.1"
   id="svg5"
   xml:space="preserve"
   inkscape:version="1.2.1 (9c6d41e, 2022-07-14)"
   sodipodi:docname="icon.svg"
   inkscape:export-filename="icon.png"
   inkscape:export-xdpi="24.383999"
   inkscape:export-ydpi="24.383999"
   xmlns:inkscape="http://www.inkscape.org/namespaces/inkscape"
   xmlns:sodipodi="http://sodipodi.sourceforge.net/DTD/sodipodi-0.dtd"
   xmlns="http://www.w3.org/2000/svg"
   xmlns:svg="http://www.w3.org/2000/svg"><sodipodi:namedview
     id="namedview7"
     pagecolor="#505050"
     bordercolor="#ffffff"
     borderopacity="1"
     inkscape:showpageshadow="0"
     inkscape:pageopacity="0"
     inkscape:pagecheckerboard="1"
     inkscape:deskcolor="#505050"
     inkscape:document-units="mm"
     showgrid="false"
     inkscape:zoom="0.2102413"
     inkscape:cx="254.4695"
     inkscape:cy="573.15094"
     inkscape:window-width="1424"
     inkscape:window-height="773"
     inkscape:window-x="8"
     inkscape:window-y="33"
     inkscape:window-maximized="0"
     inkscape:current-layer="layer1" /><defs
     id="defs2" /><g
     inkscape:label="Capa 1"
     inkscape:groupmode="layer"
     id="layer1"><rect
       style="fill:#000000;stroke:#000000;stroke-width:0;stroke-linecap:square;stroke-dasharray:none"
       id="rect6180"
       width="200"
       height="200"
       x="0"
       y="0"
       ry="39.012711" /><g
       transform="matrix(0.6487014,0,0,0.6487014,1.3941437,1.3941437)"
       id="g5695"
       style="fill:#ffffff"><path
         d="M 56.308,219.03 V 114.38 l 14.109,0.086 -0.027,-6.16 c 4.148,-2.109 8.957,-3.91 14.144,-5.359 L 84.519,88.662 c 8.234,-2.375 18.652,-3.809 29.992,-3.809 15.16,0 28.789,2.719 37.621,6.676 8.832,-3.957 22.215,-6.551 37.371,-6.551 11.344,0 21.758,1.434 29.988,3.809 l -0.011,14.285 c 5.187,1.449 9.996,3.25 14.144,5.359 l -0.027,6.16 14.109,-0.086 v 104.65 L 56.306,219.03 Z M 213.818,93.15 c -6.711,-1.293 -15.011,-2.383 -24.187,-2.383 -14.277,0 -26.797,2.684 -34.762,5.668 l -0.086,93.156 c 8.758,-3.406 21.117,-5.621 34.719,-5.621 8.867,0 17.176,0.871 24.313,2.379 z m -99.242,110.53 c -17.875,0 -33.808,3.809 -44.199,9.723 l 0.043,-93.145 -8.461,0.086 v 93.067 l 180.1,0.125 v -93.317 l -8.461,-0.086 0.043,93.395 c -10.391,-5.914 -26.325,-9.723 -44.203,-9.723 -14.356,0 -27.446,2.25 -37.43,6.274 -9.988,-4.024 -23.078,-6.399 -37.434,-6.399 z M 90.201,186.231 c 7.141,-1.512 15.446,-2.383 24.313,-2.383 13.605,0 25.961,2.219 34.722,5.621 l -0.089,-93.406 c -7.711,-3.109 -20.36,-5.543 -34.633,-5.543 -9.043,0 -17.418,1.18 -24.313,2.508 z m 61.746,9.551 c -7.199,-3.668 -21.285,-6.266 -37.433,-6.266 -11.739,0 -22.324,1.328 -30.02,3.457 l 0.071,-84.289 c -3.176,0.895 -5.985,2.012 -8.708,3.164 l 0.204,92.93 c 10.601,-4.227 23.98,-6.77 38.519,-6.77 14.051,0 27,2.231 37.43,6.207 10.43,-3.976 23.379,-6.082 37.43,-6.082 14.539,0 27.917,2.418 38.519,6.645 l 0.199,-92.805 c -2.718,-1.156 -5.527,-2.269 -8.703,-3.164 l -0.055,84.914 c -7.695,-2.129 -18.156,-4.082 -29.894,-4.082 -16.149,0 -30.359,2.598 -37.559,6.266"
         fill-rule="evenodd"
         id="path5677"
         style="fill:#ffffff" /><path
         d="m 29.62,265.39 h -27"
         fill="none"
         stroke="#000000"
         stroke-width="0.5"
         id="path5679"
         style="fill:#ffffff" /><path
         d="m 38.62,274.39 v 27"
         fill="none"
         stroke="#000000"
         stroke-width="0.5"
         id="path5681"
         style="fill:#ffffff" /><path
         d="m 29.62,38.62 h -27"
         fill="none"
         stroke="#000000"
         stroke-width="0.5"
         id="path5683"
         style="fill:#ffffff" /><path
         d="m 38.62,29.62 v -27"
         fill="none"
         stroke="#000000"
         stroke-width="0.5"
         id="path5685"
         style="fill:#ffffff" /><path
         d="m 274.39,38.62 h 27"
         fill="none"
         stroke="#000000"
         stroke-width="0.5"
         id="path5687"
         style="fill:#ffffff" /><path
         d="m 265.39,29.62 v -27"
         fill="none"
         stroke="#000000"
         stroke-width="0.5"
         id="path5689"
         style="fill:#ffffff" /><path
         d="m 274.39,265.39 h 27"
         fill="none"
         stroke="#000000"
         stroke-width="0.5"
         id="path5691"
         style="fill:#ffffff" /><path
         d="m 265.39,274.39 v 27"
         fill="none"
         stroke="#000000"
         stroke-width="0.5"
         id="path5693"
         style="fill:#ffffff" /></g></g></svg>
